<?xml version="1.0" encoding="utf-8"?>
<!-- Generator: Adobe Illustrator 25.4.1, SVG Export Plug-In . SVG Version: 6.00 Build 0)  -->
<svg version="1.1" id="Calque_1" xmlns="http://www.w3.org/2000/svg" xmlns:xlink="http://www.w3.org/1999/xlink" x="0px" y="0px"
	 viewBox="0 0 234.48 189.66" style="enable-background:new 0 0 234.48 189.66;" xml:space="preserve">
<style type="text/css">
	.st0{fill:#FFFFFF;}
	.st1{fill:#FFED00;}
</style>
<polygon class="st0" points="123.28,71.98 126.47,71.98 126.47,42.3 123.57,42.3 79.34,105.24 35.1,42.3 32.06,42.3 32.06,143.82 
	35.25,143.82 35.25,47.66 79.19,110.32 79.34,110.32 123.28,47.66 "/>
<circle class="st1" cx="124.49" cy="85.74" r="4.45"/>
<g>
	<path class="st0" d="M136.77,51.08c2.21-1.43,4.69-2.63,7.45-3.59c3.88-1.34,8.21-2.02,12.98-2.02c6.73,0,13.05,1.11,18.96,3.34
		c5.91,2.23,11.29,5.16,16.16,8.78l2.18-2.8c-4.97-3.83-10.59-6.86-16.86-9.09c-6.27-2.23-12.98-3.34-20.12-3.34
		c-5.18,0-9.92,0.73-14.22,2.18c-2.35,0.79-4.51,1.76-6.51,2.88V51.08z"/>
	<path class="st0" d="M196.35,115.01c-1.24-2.95-3.34-5.59-6.29-7.93c-2.95-2.33-6.84-4.4-11.65-6.22
		c-4.82-1.81-10.75-3.44-17.79-4.89c-6.74-1.35-12.33-2.82-16.78-4.43c-2.67-0.96-5-2.01-7.06-3.12v3.84
		c1.62,0.79,3.36,1.54,5.27,2.24c4.71,1.71,10.44,3.24,17.17,4.58c6.84,1.45,12.56,2.98,17.17,4.58c4.61,1.61,8.26,3.45,10.96,5.52
		c2.69,2.07,4.61,4.43,5.75,7.07c1.14,2.64,1.71,5.62,1.71,8.94v0.31c0,3.63-0.78,7.02-2.33,10.18c-1.55,3.16-3.78,5.88-6.68,8.16
		c-2.9,2.28-6.42,4.07-10.57,5.36c-4.14,1.3-8.76,1.94-13.83,1.94c-7.98,0-15.38-1.45-22.22-4.35c-6.84-2.9-13.05-7.04-18.65-12.43
		l-2.49,2.49c5.91,5.59,12.46,9.9,19.66,12.9c7.2,3,15,4.51,23.39,4.51c5.7,0,10.85-0.75,15.46-2.25c4.61-1.5,8.52-3.55,11.73-6.14
		c3.21-2.59,5.67-5.65,7.38-9.17c1.71-3.52,2.56-7.3,2.56-11.34v-0.31C198.22,121.31,197.6,117.97,196.35,115.01z"/>
</g>
</svg>
