<?xml version="1.0" encoding="utf-8"?>
<!-- Generator: Adobe Illustrator 25.4.1, SVG Export Plug-In . SVG Version: 6.00 Build 0)  -->
<svg version="1.1" id="Calque_1" xmlns="http://www.w3.org/2000/svg" xmlns:xlink="http://www.w3.org/1999/xlink" x="0px" y="0px"
	 viewBox="0 0 149.64 65.18" style="enable-background:new 0 0 149.64 65.18;" xml:space="preserve">
<style type="text/css">
	.st0{fill:#FFFFFF;}
	.st1{fill:url(#SVGID_1_);}
	.st2{fill:url(#SVGID_00000088117421892914487920000015570727199142988708_);}
</style>
<path class="st0" d="M26.08,39.48h-3.5v-24.7h-10.5v-3.2h14v3.2l0,0V39.48z"/>
<path class="st0" d="M50.08,39.48h-4.2l-8.2-11.8h-1.4v11.8h-3.5v-27.9h4.2c2.5,0,5.1,0,7.4,1.3c2.3,1.4,3.7,4,3.7,6.7
	c0,4-2.7,7.3-6.7,7.8L50.08,39.48z M36.18,24.78h1.1c3.5,0,7.4-0.7,7.4-5.1s-4.1-5-7.6-5h-0.9V24.78z"/>
<path class="st0" d="M52.78,11.58h15v3.2h-11.5v7.8h5.9v3.2h-5.9v10.5h11.5v3.2h-15V11.58z"/>
<linearGradient id="SVGID_1_" gradientUnits="userSpaceOnUse" x1="82.48" y1="11.7973" x2="82.48" y2="22.55">
	<stop  offset="7.437350e-03" style="stop-color:#FFFFFF;stop-opacity:0"/>
	<stop  offset="0.0557" style="stop-color:#F5EAFF;stop-opacity:0.0487"/>
	<stop  offset="0.1995" style="stop-color:#DBB1FF;stop-opacity:0.1935"/>
	<stop  offset="0.3437" style="stop-color:#C580FF;stop-opacity:0.3388"/>
	<stop  offset="0.4851" style="stop-color:#B358FF;stop-opacity:0.4813"/>
	<stop  offset="0.6232" style="stop-color:#A439FF;stop-opacity:0.6204"/>
	<stop  offset="0.7571" style="stop-color:#9A23FF;stop-opacity:0.7553"/>
	<stop  offset="0.8849" style="stop-color:#9416FF;stop-opacity:0.884"/>
	<stop  offset="1" style="stop-color:#9211FF"/>
</linearGradient>
<polygon class="st1" points="90.78,11.58 82.48,32.18 74.18,11.58 70.38,11.58 82.48,40.98 94.58,11.58 "/>
<linearGradient id="SVGID_00000071528040364942138240000004240303668820437379_" gradientUnits="userSpaceOnUse" x1="103.28" y1="40.0633" x2="103.28" y2="30.6805">
	<stop  offset="0" style="stop-color:#FFFFFF;stop-opacity:0"/>
	<stop  offset="0.0436" style="stop-color:#F8F0FF;stop-opacity:0.0436"/>
	<stop  offset="0.2461" style="stop-color:#D9ADFF;stop-opacity:0.2461"/>
	<stop  offset="0.4385" style="stop-color:#C075FF;stop-opacity:0.4385"/>
	<stop  offset="0.6153" style="stop-color:#AC4AFF;stop-opacity:0.6153"/>
	<stop  offset="0.7734" style="stop-color:#9E2BFF;stop-opacity:0.7734"/>
	<stop  offset="0.9069" style="stop-color:#9518FF;stop-opacity:0.9069"/>
	<stop  offset="1" style="stop-color:#9211FF"/>
</linearGradient>
<polygon style="fill:url(#SVGID_00000071528040364942138240000004240303668820437379_);" points="103.28,10.38 89.98,39.48 
	93.68,39.48 103.28,17.98 112.88,39.48 116.58,39.48 "/>
<path class="st0" d="M130.48,16.88c-1-1.7-2.4-2.6-4.5-2.6c-2.2,0-4.7,1.5-4.7,4c0,2.2,2.1,3.3,3.9,4l2,0.8c4,1.6,6.9,3.7,6.9,8.4
	c0,5.1-3.9,8.7-8.9,8.7c-4.5,0-8-3.3-8.6-7.8l3.5-0.7c0,3.1,2.4,5.3,5.4,5.3c3,0,5.1-2.5,5.1-5.4c0-3-2.4-4.3-4.8-5.3l-1.9-0.8
	c-3.2-1.4-6.1-3.2-6.1-7.1c0-4.5,4-7.2,8.2-7.2c3.1,0,5.7,1.5,7.2,4.2L130.48,16.88z"/>
<path class="st0" d="M88.48,53.58l1.8-4.4h0.8l-2.6,6.2l-2.6-6.2h0.8L88.48,53.58z"/>
<path class="st0" d="M93.58,55.08h-0.7v-5.2h-1.4v-0.7h3.5v0.7h-1.4V55.08z"/>
<path class="st0" d="M96.88,54.48h1.8v0.7h-2.5v-6h0.7V54.48z"/>
<path class="st0" d="M102.48,49.18h3.2v0.7h-2.4v1.7h2.4v0.6h-2.4v2.2h2.4v0.7h-3.2V49.18z"/>
<path class="st0" d="M106.98,48.98l4.4,4.6v-4.4h0.7v6.1l-4.4-4.6v4.4h-0.7V48.98z"/>
<path class="st0" d="M119.18,52.18v0.2c0,1.6-1.1,2.9-2.8,2.9s-3-1.4-3-3.1c0-1.7,1.4-3.1,3.1-3.1c0.9,0,1.8,0.4,2.4,1.1l-0.5,0.5
	c-0.4-0.6-1.1-1-1.9-1c-1.3,0-2.4,1.1-2.4,2.4c0,1.2,1,2.4,2.3,2.4c0.9,0,1.9-0.8,1.9-1.8h-1.5v-0.5
	C116.78,52.18,119.18,52.18,119.18,52.18z"/>
<path class="st0" d="M121.08,55.08h-0.7v-5.9h0.7V55.08z"/>
<path class="st0" d="M122.68,48.98l4.4,4.6v-4.4h0.7v6.1l-4.4-4.6v4.4h-0.7V48.98z"/>
<path class="st0" d="M129.48,49.18h3.2v0.7h-2.4v1.7h2.4v0.6h-2.4v2.2h2.4v0.7h-3.2V49.18z"/>
</svg>
