<?xml version="1.0" encoding="utf-8"?>
<!-- Generator: Adobe Illustrator 25.4.1, SVG Export Plug-In . SVG Version: 6.00 Build 0)  -->
<svg version="1.1" id="Calque_1" xmlns="http://www.w3.org/2000/svg" xmlns:xlink="http://www.w3.org/1999/xlink" x="0px" y="0px"
	 viewBox="0 0 81.14 35.47" style="enable-background:new 0 0 81.14 35.47;" xml:space="preserve">
<style type="text/css">
	.st0{fill:#FFFFFF;}
</style>
<g>
	<path class="st0" d="M20.24,21.03c-0.01,0.06-0.01,0.11-0.01,0.16v0.26h-4.18c0,0.24,0.04,0.47,0.11,0.68
		c0.08,0.22,0.19,0.4,0.34,0.54c0.11,0.1,0.24,0.19,0.39,0.27s0.33,0.11,0.53,0.11c0.22,0,0.39-0.02,0.53-0.07s0.27-0.12,0.38-0.23
		c0.14-0.14,0.24-0.32,0.3-0.53h1.44c-0.02,0.18-0.08,0.39-0.19,0.61c-0.11,0.22-0.22,0.4-0.34,0.55c-0.26,0.31-0.58,0.54-0.95,0.67
		c-0.37,0.14-0.75,0.2-1.15,0.2c-0.43,0-0.81-0.07-1.12-0.21c-0.32-0.14-0.6-0.33-0.85-0.56c-0.31-0.3-0.55-0.67-0.71-1.09
		s-0.25-0.89-0.25-1.4c0-0.5,0.07-0.97,0.22-1.4c0.15-0.43,0.37-0.79,0.68-1.1c0.23-0.24,0.51-0.43,0.85-0.58
		c0.33-0.14,0.71-0.22,1.15-0.22c0.46,0,0.9,0.09,1.3,0.28c0.4,0.19,0.73,0.48,0.98,0.87c0.23,0.34,0.38,0.69,0.44,1.05
		C20.21,20.27,20.24,20.64,20.24,21.03z M18.74,20.36c-0.01-0.46-0.14-0.82-0.38-1.09c-0.1-0.11-0.23-0.2-0.39-0.26
		c-0.16-0.06-0.34-0.1-0.56-0.1c-0.23,0-0.44,0.04-0.61,0.13c-0.18,0.09-0.32,0.2-0.43,0.35c-0.11,0.14-0.19,0.28-0.24,0.43
		c-0.05,0.15-0.08,0.33-0.08,0.54H18.74z"/>
	<path class="st0" d="M25.61,24.11l-0.11-0.82c-0.15,0.3-0.39,0.54-0.71,0.71c-0.32,0.17-0.68,0.26-1.08,0.26
		c-0.34,0-0.64-0.05-0.9-0.16c-0.26-0.11-0.49-0.26-0.68-0.46s-0.33-0.43-0.43-0.7c-0.1-0.27-0.15-0.58-0.15-0.91v-4.16h1.5v3.83
		c0,0.37,0.08,0.66,0.24,0.87c0.16,0.21,0.44,0.32,0.84,0.32c0.18,0,0.33-0.03,0.45-0.09c0.12-0.06,0.23-0.13,0.32-0.22
		c0.18-0.17,0.31-0.38,0.37-0.64c0.06-0.26,0.09-0.51,0.09-0.77v-3.3h1.5v6.24H25.61z"/>
	<path class="st0" d="M32.36,19.26c-0.18-0.04-0.36-0.06-0.52-0.06c-0.53,0-0.93,0.17-1.2,0.5s-0.41,0.76-0.41,1.26v3.14h-1.51
		v-6.24H30l0.13,0.94c0.14-0.36,0.38-0.62,0.71-0.78c0.33-0.16,0.68-0.24,1.05-0.24c0.15,0,0.31,0.01,0.47,0.04V19.26z"/>
	<path class="st0" d="M38.65,20.98c0,0.53-0.06,0.97-0.19,1.33c-0.13,0.36-0.31,0.68-0.54,0.98c-0.22,0.26-0.51,0.49-0.89,0.68
		c-0.38,0.19-0.81,0.29-1.29,0.29s-0.91-0.1-1.29-0.29c-0.38-0.19-0.68-0.42-0.89-0.68c-0.23-0.3-0.41-0.62-0.54-0.98
		c-0.13-0.36-0.19-0.8-0.19-1.33s0.06-0.97,0.19-1.33c0.13-0.36,0.31-0.68,0.54-0.98c0.22-0.26,0.51-0.49,0.89-0.68
		c0.38-0.19,0.81-0.29,1.29-0.29s0.91,0.1,1.29,0.29c0.38,0.19,0.68,0.42,0.89,0.68c0.23,0.3,0.41,0.62,0.54,0.98
		C38.59,20.02,38.65,20.46,38.65,20.98z M37.13,20.98c0-0.3-0.03-0.58-0.08-0.86c-0.06-0.28-0.18-0.51-0.36-0.71
		c-0.1-0.11-0.24-0.21-0.4-0.28c-0.16-0.08-0.34-0.11-0.55-0.11s-0.39,0.04-0.55,0.11c-0.16,0.08-0.29,0.17-0.4,0.28
		c-0.18,0.2-0.3,0.44-0.36,0.71c-0.06,0.28-0.08,0.56-0.08,0.86s0.03,0.58,0.08,0.86c0.06,0.28,0.18,0.51,0.36,0.71
		c0.1,0.11,0.24,0.21,0.4,0.28c0.16,0.08,0.34,0.11,0.55,0.11s0.39-0.04,0.55-0.11c0.16-0.08,0.29-0.17,0.4-0.28
		c0.18-0.2,0.3-0.44,0.36-0.71C37.1,21.57,37.13,21.28,37.13,20.98z"/>
	<path class="st0" d="M44.94,22.17c0,0.3-0.05,0.57-0.15,0.79c-0.1,0.22-0.23,0.42-0.39,0.58c-0.26,0.26-0.57,0.44-0.94,0.55
		c-0.37,0.11-0.77,0.17-1.2,0.17c-0.4,0-0.77-0.06-1.12-0.17c-0.34-0.12-0.64-0.3-0.9-0.55c-0.18-0.18-0.34-0.39-0.47-0.64
		s-0.19-0.52-0.19-0.82h1.4c0,0.14,0.03,0.27,0.1,0.41c0.06,0.14,0.14,0.24,0.24,0.32c0.12,0.1,0.25,0.17,0.4,0.21
		c0.15,0.04,0.33,0.07,0.55,0.07c0.13,0,0.27-0.01,0.41-0.03c0.15-0.02,0.29-0.06,0.41-0.11c0.13-0.06,0.23-0.14,0.32-0.24
		c0.08-0.1,0.13-0.24,0.13-0.41c0-0.18-0.06-0.33-0.17-0.44c-0.11-0.11-0.26-0.18-0.46-0.22c-0.28-0.04-0.57-0.07-0.86-0.1
		c-0.3-0.03-0.58-0.07-0.86-0.14c-0.22-0.05-0.41-0.12-0.58-0.23c-0.17-0.1-0.32-0.23-0.45-0.38c-0.13-0.15-0.23-0.31-0.29-0.49
		s-0.1-0.37-0.1-0.57c0-0.32,0.06-0.59,0.18-0.82c0.12-0.23,0.27-0.42,0.46-0.58c0.23-0.2,0.51-0.35,0.83-0.46
		c0.32-0.11,0.68-0.16,1.07-0.16c0.38,0,0.74,0.06,1.09,0.18s0.64,0.3,0.87,0.55c0.17,0.18,0.3,0.39,0.4,0.61
		c0.1,0.22,0.15,0.45,0.15,0.68h-1.43c0-0.12-0.02-0.23-0.07-0.32c-0.05-0.1-0.11-0.18-0.18-0.26c-0.09-0.09-0.21-0.16-0.35-0.21
		c-0.15-0.05-0.3-0.08-0.46-0.08c-0.11,0-0.22,0-0.32,0.01s-0.21,0.04-0.32,0.08c-0.14,0.06-0.25,0.14-0.34,0.25
		c-0.09,0.11-0.14,0.25-0.14,0.41c0,0.22,0.08,0.38,0.23,0.46c0.16,0.08,0.32,0.14,0.49,0.16c0.14,0.02,0.26,0.03,0.36,0.04
		c0.1,0.01,0.19,0.02,0.29,0.04s0.2,0.03,0.3,0.04s0.23,0.04,0.38,0.06c0.5,0.08,0.9,0.27,1.22,0.57
		C44.78,21.28,44.94,21.68,44.94,22.17z"/>
	<path class="st0" d="M49.81,24.02c-0.43,0.11-0.86,0.17-1.28,0.17c-0.63,0-1.1-0.17-1.42-0.51s-0.47-0.81-0.47-1.41V19.1H45.5
		v-1.24h1.14v-1.58l1.5-0.37v1.96h1.57v1.24h-1.57v3.04c0,0.24,0.06,0.41,0.17,0.52c0.11,0.11,0.29,0.16,0.53,0.16
		c0.16,0,0.31,0,0.45-0.01s0.31-0.02,0.52-0.05V24.02z"/>
	<path class="st0" d="M56.52,24.03c-0.13,0.06-0.24,0.1-0.33,0.13c-0.09,0.03-0.23,0.04-0.41,0.04c-0.33,0-0.58-0.09-0.76-0.26
		c-0.18-0.18-0.28-0.38-0.3-0.61c-0.14,0.26-0.38,0.48-0.72,0.66s-0.73,0.28-1.18,0.28c-0.38,0-0.7-0.05-0.98-0.16
		c-0.28-0.11-0.51-0.25-0.7-0.43c-0.19-0.18-0.33-0.39-0.43-0.62c-0.1-0.24-0.14-0.48-0.14-0.74c0-0.3,0.05-0.56,0.16-0.79
		c0.11-0.23,0.26-0.43,0.45-0.6c0.19-0.17,0.42-0.3,0.67-0.39c0.26-0.09,0.53-0.15,0.83-0.17l1.84-0.13v-0.38
		c0-0.3-0.07-0.53-0.21-0.71c-0.14-0.18-0.42-0.27-0.85-0.27c-0.35,0-0.63,0.08-0.82,0.23c-0.2,0.15-0.3,0.37-0.32,0.66h-1.45
		c0.02-0.35,0.11-0.66,0.25-0.91c0.14-0.26,0.33-0.47,0.56-0.63s0.5-0.29,0.8-0.37c0.3-0.08,0.63-0.12,0.98-0.12
		c0.54,0,1.01,0.09,1.43,0.28c0.42,0.19,0.72,0.52,0.91,0.99c0.08,0.2,0.13,0.41,0.15,0.62s0.03,0.43,0.03,0.64v2.32
		c0,0.14,0.03,0.25,0.08,0.31c0.05,0.06,0.14,0.09,0.27,0.09c0.06,0,0.11,0,0.13-0.01c0.02,0,0.04,0,0.06-0.01V24.03z M54.51,21.33
		l-1.58,0.12c-0.23,0.02-0.44,0.09-0.62,0.23c-0.18,0.14-0.28,0.33-0.28,0.59c0,0.24,0.09,0.43,0.27,0.57
		c0.18,0.14,0.39,0.21,0.62,0.21c0.47,0,0.86-0.12,1.15-0.37s0.44-0.6,0.44-1.06V21.33z"/>
	<path class="st0" d="M61.29,24.02c-0.43,0.11-0.86,0.17-1.28,0.17c-0.63,0-1.1-0.17-1.42-0.51s-0.47-0.81-0.47-1.41V19.1h-1.14
		v-1.24h1.14v-1.58l1.5-0.37v1.96h1.57v1.24h-1.57v3.04c0,0.24,0.06,0.41,0.17,0.52c0.11,0.11,0.29,0.16,0.53,0.16
		c0.16,0,0.31,0,0.45-0.01s0.31-0.02,0.52-0.05V24.02z"/>
</g>
<path class="st0" d="M14.92,4.49v8.31h12.46V4.49H14.92z M23.4,7.16l0.1-0.31l0.1,0.31h0.33l-0.27,0.19l0.1,0.31L23.5,7.47
	l-0.26,0.19l0.1-0.31l-0.27-0.19L23.4,7.16z M18,8.52l0.33,0l0.1-0.32l0.1,0.31h0.33l-0.27,0.19l0.1,0.31l-0.26-0.19l-0.26,0.19
	l0.1-0.31L18,8.52z M19.05,10.39l-0.26-0.19l-0.26,0.19l0.1-0.31l-0.27-0.19l0.33,0l0.1-0.31l0.1,0.31h0.33l-0.27,0.19L19.05,10.39z
	 M18.95,7.36l0.1,0.31l-0.26-0.19l-0.26,0.19l0.1-0.31l-0.27-0.19l0.33,0l0.1-0.31l0.1,0.31h0.33L18.95,7.36z M19.69,6.17l0.1-0.31
	l0.1,0.31h0.33l-0.27,0.19l0.1,0.31l-0.26-0.19l-0.26,0.19l0.1-0.31l-0.27-0.19L19.69,6.17z M20.05,11.38l-0.26-0.19l-0.26,0.19
	l0.1-0.31l-0.27-0.19l0.33,0l0.1-0.31l0.1,0.31h0.33l-0.27,0.19L20.05,11.38z M21.05,5.8l0.1-0.31l0.1,0.31h0.33l-0.27,0.19
	l0.1,0.31l-0.26-0.19L20.88,6.3l0.1-0.31L20.72,5.8L21.05,5.8z M21.41,11.75l-0.26-0.19l-0.26,0.19l0.1-0.31l-0.27-0.19l0.33,0
	l0.1-0.31l0.1,0.31h0.33l-0.27,0.19L21.41,11.75z M22.77,11.38l-0.26-0.19l-0.26,0.19l0.1-0.31l-0.27-0.19l0.33,0l0.1-0.31l0.1,0.31
	h0.33l-0.27,0.19L22.77,11.38z M22.67,6.36l0.1,0.31l-0.26-0.19l-0.26,0.19l0.1-0.31l-0.27-0.19l0.33,0l0.1-0.31l0.1,0.31h0.33
	L22.67,6.36z M23.77,10.39l-0.26-0.19l-0.26,0.19l0.1-0.31l-0.27-0.19l0.33,0l0.1-0.31l0.1,0.31h0.33l-0.27,0.19L23.77,10.39z
	 M24.13,9.02l-0.26-0.19L23.6,9.02l0.1-0.31l-0.27-0.19l0.33,0l0.1-0.31l0.1,0.31h0.33l-0.27,0.19L24.13,9.02z"/>
</svg>
