<?xml version="1.0" encoding="utf-8"?>
<!-- Generator: Adobe Illustrator 15.0.0, SVG Export Plug-In . SVG Version: 6.00 Build 0)  -->
<!DOCTYPE svg PUBLIC "-//W3C//DTD SVG 1.1//EN" "http://www.w3.org/Graphics/SVG/1.1/DTD/svg11.dtd">
<svg version="1.1" id="Layer_1" xmlns="http://www.w3.org/2000/svg" xmlns:xlink="http://www.w3.org/1999/xlink" x="0px" y="0px"
	 width="290px" height="75px" viewBox="0 0 290 75" enable-background="new 0 0 290 75" xml:space="preserve">
<rect x="34.373" y="31.5" transform="matrix(0.7071 0.7071 -0.7071 0.7071 41.0906 -18.7033)" fill="#2084B4" width="17.5" height="17.501"/>
<polygon fill="#3793BC" points="55.498,15.501 45.245,25.754 57.619,38.129 60.239,35.509 62.949,45.622 52.836,42.912 
	55.498,40.25 43.123,27.876 30.749,40.25 55.498,64.999 80.247,40.25 "/>
<polygon fill="#3793BC" points="28.627,42.372 26.007,44.992 23.297,34.879 33.411,37.589 30.749,40.251 43.124,52.625 
	55.498,40.25 30.75,15.501 6,40.25 30.749,64.999 41.002,54.746 "/>
<path fill="#737A7F" d="M124.474,30.371l-7.152,1.252c0-6.086-2.827-9.13-8.484-9.13c-3.475,0-5.213,1.428-5.213,4.281
	c0,2.102,2.99,4.365,8.969,6.789c9.158,3.744,13.738,8.499,13.738,14.262c0,9.188-5.833,13.779-17.495,13.779
	c-12.337,0-18.505-4.592-18.505-13.779l7.596-1.534c-0.107,0.888-0.161,1.724-0.161,2.505c0,2.37,0.989,4.43,2.97,6.182
	c1.979,1.753,4.315,2.625,7.01,2.625c3.555,0,5.333-1.508,5.333-4.523c0-2.021-2.869-4.256-8.607-6.709
	c-8.645-3.716-12.968-8.482-12.968-14.301c0-3.854,1.656-7.011,4.968-9.475c3.314-2.467,7.57-3.699,12.769-3.699
	C118.48,18.896,123.558,22.722,124.474,30.371z"/>
<path fill="#737A7F" d="M155.27,11.401V22.32c-2.354-3.507-5.521-5.257-9.503-5.257c-10.099,0-15.145,7.527-15.145,22.586
	c0,14.635,4.767,21.955,14.3,21.955c4.321,0,7.769-1.541,10.348-4.627v3.66h15.353V11.401H155.27z M155.354,47.682
	c0,5.161-1.415,7.741-4.25,7.741c-2.912,0-4.374-2.624-4.374-7.866l-0.167-8.202l0.297-9.002c0-4.735,1.29-7.107,3.87-7.107
	c2.55,0,4.047,2.342,4.499,7.025l0.339,7.066L155.354,47.682z"/>
<path fill="#737A7F" d="M239.7,61.604h-15.029V30.433c0-2.717-0.796-4.076-2.388-4.076c-3.679,0-5.518,3.912-5.518,11.736v23.512
	h-15.029V31.093c0-3.103-0.714-4.654-2.142-4.654c-3.733,0-5.6,3.898-5.6,11.695v23.471h-15.029v-41.63
	c5.078,0,10.088-0.343,15.029-1.029v7.165c3.541-4.75,7.905-7.124,13.094-7.124c4.337,0,7.563,2.238,9.677,6.712
	c3.349-4.529,7.535-6.795,12.559-6.795c6.918,0,10.376,3.5,10.376,10.5V61.604z"/>
<path fill="#737A7F" d="M283.467,18.903l-12.581,17.072l14.445,25.629h-17.707l-8.006-13.98l-10.294,13.98h-5.931l13.683-18.555
	l-13.556-24.146h17.792l6.989,12.412l9.234-12.412H283.467z"/>
</svg>
