<?xml version="1.0" encoding="utf-8"?>
<!-- Generator: Adobe Illustrator 25.4.1, SVG Export Plug-In . SVG Version: 6.00 Build 0)  -->
<svg version="1.1" id="Calque_1" xmlns="http://www.w3.org/2000/svg" xmlns:xlink="http://www.w3.org/1999/xlink" x="0px" y="0px"
	 viewBox="0 0 158.07 58.97" style="enable-background:new 0 0 158.07 58.97;" xml:space="preserve">
<style type="text/css">
	.st0{fill:#FFFFFF;}
</style>
<g>
	<g>
		<path class="st0" d="M41.04,21.76h2.4c0.59,0,1.12,0.35,1.36,0.88l7.9,17.72h-3.65L41.04,21.76z"/>
		<path class="st0" d="M75.63,31.46c-1.1-0.83-2.8-1.4-5.11-1.7c-0.81-0.1-2.49-0.24-5.03-0.41c-1.73-0.1-2.97-0.29-3.73-0.56
			c-1.07-0.37-1.6-0.96-1.6-1.78c0-0.78,0.5-1.39,1.5-1.83s2.44-0.66,4.32-0.66c2.83,0,5.61,0.69,8.33,2.08l1.37-1.52l0,0
			c0.43-0.47-0.02-0.85-0.14-0.94c-2.56-1.55-5.67-2.32-9.33-2.32c-2.95,0-5.23,0.5-6.85,1.5s-2.43,2.36-2.43,4.09
			c0,1.68,0.71,2.87,2.14,3.58c1.22,0.61,3.35,1.02,6.38,1.22c3.42,0.22,5.52,0.43,6.3,0.64c1.49,0.39,2.24,1.17,2.24,2.34
			c0,1-0.57,1.79-1.7,2.36c-1.19,0.59-2.86,0.89-5.01,0.89c-2.84,0-5.53-0.65-8.05-1.94c-0.01,0-0.01,0-0.02-0.01
			c-1.26-0.59-1.84,0.11-1.84,0.11l-1.07,1.41c2.61,2.07,6.26,3.1,10.95,3.1c3.24,0,5.72-0.53,7.44-1.6
			c1.73-1.07,2.59-2.58,2.59-4.52C77.29,33.47,76.73,32.29,75.63,31.46z"/>
		<path class="st0" d="M100.99,24.84c-1.87-1.7-4.41-2.55-7.61-2.55H81.75v1.95c0,0,0.1,0.79,1.3,0.79h1.75h8.84
			c2.05,0,3.71,0.6,4.97,1.81c1.26,1.21,1.89,2.8,1.89,4.77c0,1.85-0.59,3.37-1.77,4.55s-2.68,1.77-4.51,1.77H84.8L81.75,38v1.53
			c0,0,0,1.14,1.24,1.14h10.98c2.73,0,5.01-0.81,6.86-2.44c1.98-1.75,2.97-3.93,2.97-6.56C103.8,28.82,102.87,26.54,100.99,24.84z"
			/>
		<path class="st0" d="M13.12,24.84c1.87-1.7,4.41-2.55,7.61-2.55h11.64v1.95c0,0-0.1,0.79-1.3,0.79h-1.75h-8.84
			c-2.05,0-3.71,0.6-4.97,1.81c-1.26,1.21-1.89,2.8-1.89,4.77c0,1.85,0.59,3.37,1.77,4.55s2.68,1.77,4.51,1.77h9.43L32.38,38v1.53
			c0,0,0,1.14-1.24,1.14h-11c-2.73,0-5.01-0.81-6.86-2.44c-1.98-1.75-2.97-3.93-2.97-6.56C10.31,28.82,11.24,26.54,13.12,24.84z"/>
	</g>
	<path class="st0" d="M142.85,20.61L142.85,20.61L142.85,20.61l-12.06-6.96l-0.03-0.02l-12.09,6.98l-0.03,0.02v13.99l0.03,0.02l0,0
		l0,0l12.06,6.96l0.03,0.02l0.03-0.02l0,0l0,0l12.06-6.96l0.03-0.02v-14L142.85,20.61z M120.77,31.1l0.96-1.67l2.89,1.67l-2.89,1.67
		L120.77,31.1z M121.64,32.82l-2.79,1.61l1.86-3.22L121.64,32.82z M140.75,24.14l-0.96,1.67l-2.89-1.67l2.89-1.67L140.75,24.14z
		 M139.88,22.41l2.79-1.61l-1.86,3.22L139.88,22.41z M136.74,27.56h-5.77l5.77-3.33V27.56z M136.85,24.34l1.86,3.22h-1.86V24.34z
		 M130.82,27.52v-6.78l5.87,3.39L130.82,27.52z M130.71,27.52l-5.87-3.39l5.87-3.39V27.52z M130.56,27.56h-5.77v-3.33L130.56,27.56z
		 M124.68,27.56h-1.86l1.86-3.22V27.56z M124.68,27.67v3.22l-1.86-3.22H124.68z M124.79,27.67h5.77L124.79,31V27.67z M130.71,27.71
		v6.78l-5.87-3.39L130.71,27.71z M130.82,27.71l5.87,3.39l-5.87,3.39V27.71z M130.97,27.67h5.77V31L130.97,27.67z M136.85,27.67
		h1.86l-1.86,3.22V27.67z M138.8,27.51l-1.86-3.22l2.79,1.61L138.8,27.51z M139.83,25.95l2.79,1.61h-3.72L139.83,25.95z
		 M130.97,20.71h3.79l1.89,3.28L130.97,20.71z M124.88,23.99l1.89-3.28h3.79L124.88,23.99z M122.72,27.51l-0.93-1.61l2.79-1.61
		L122.72,27.51z M122.63,27.56h-3.72l2.79-1.61L122.63,27.56z M118.85,27.47l1.86-3.22l0.93,1.61L118.85,27.47z M122.63,27.67
		l-0.93,1.61l-2.79-1.61H122.63z M122.72,27.73l1.86,3.22l-2.79-1.61L122.72,27.73z M130.56,34.53h-3.79l-1.89-3.28L130.56,34.53z
		 M136.64,31.25l-1.89,3.28h-3.79L136.64,31.25z M138.8,27.73l0.93,1.61l-2.79,1.61L138.8,27.73z M138.9,27.67h3.72l-2.79,1.61
		L138.9,27.67z M139.88,25.86l0.93-1.61l1.86,3.22L139.88,25.86z M134.88,20.71h1.86v3.23L134.88,20.71z M134.81,20.6l-0.96-1.67
		l2.89-1.67v3.33h-1.93V20.6z M134.69,20.6h-3.72l2.79-1.61L134.69,20.6z M126.84,20.6l0.93-1.61l2.79,1.61H126.84z M126.71,20.6
		h-1.92v-3.33l2.89,1.67L126.71,20.6z M126.65,20.71l-1.86,3.23v-3.23H126.65z M121.74,25.8l-0.96-1.67l0.96-1.67l2.89,1.67
		L121.74,25.8z M120.71,24.03l-1.86-3.22l2.79,1.61L120.71,24.03z M120.65,24.14l-1.89,3.28v-6.56L120.65,24.14z M121.64,29.38
		l-0.93,1.61l-1.86-3.22L121.64,29.38z M126.65,34.53h-1.86V31.3L126.65,34.53z M126.71,34.64l0.96,1.67l-2.89,1.67v-3.33
		L126.71,34.64L126.71,34.64z M126.84,34.64h3.72l-2.79,1.61L126.84,34.64z M134.69,34.64l-0.93,1.61l-2.79-1.61H134.69z
		 M134.82,34.64h1.92v3.33l-2.89-1.67L134.82,34.64z M134.88,34.53l1.86-3.22v3.22H134.88z M139.79,29.43l0.96,1.67l-0.96,1.67
		l-2.89-1.67L139.79,29.43z M139.88,29.38l2.79-1.61l-1.86,3.22L139.88,29.38z M142.77,27.82v6.56l-1.89-3.28L142.77,27.82z
		 M140.88,24.14l1.89-3.28v6.56L140.88,24.14z M139.83,22.32l-0.93-1.61h3.72L139.83,22.32z M139.73,22.38l-2.89,1.67v-3.33h1.92
		L139.73,22.38z M136.85,20.6v-3.22l1.86,3.22H136.85z M133.8,18.84l-0.93-1.61h3.72L133.8,18.84z M133.7,18.89l-2.89,1.67v-3.33
		h1.92L133.7,18.89z M130.82,17.12V13.9l1.86,3.22C132.68,17.12,130.82,17.12,130.82,17.12z M130.71,17.12h-1.86l1.86-3.22V17.12z
		 M130.71,17.23v3.33l-2.89-1.67l0.96-1.67h1.93V17.23z M127.73,18.84l-2.79-1.61h3.72L127.73,18.84z M124.68,20.6h-1.86l1.86-3.22
		V20.6z M124.68,20.71v3.33l-2.89-1.67l0.96-1.67h1.93V20.71z M121.7,22.32l-2.79-1.61h3.72L121.7,22.32z M118.76,27.82l1.89,3.28
		l-1.89,3.28V27.82z M121.7,32.92l0.93,1.61h-3.72L121.7,32.92z M121.79,32.86l2.89-1.67v3.33h-1.92L121.79,32.86z M124.68,34.64
		v3.22l-1.86-3.22H124.68z M127.73,36.4l0.93,1.61h-3.72L127.73,36.4z M127.82,36.34l2.89-1.67V38h-1.92L127.82,36.34z
		 M130.71,38.12v3.22l-1.86-3.22H130.71z M130.82,38.12h1.86l-1.86,3.22V38.12z M130.82,38.01v-3.33l2.89,1.67l-0.96,1.67
		L130.82,38.01L130.82,38.01z M133.8,36.4l2.79,1.61h-3.72L133.8,36.4z M136.85,34.64h1.86l-1.86,3.22V34.64z M136.85,34.53V31.2
		l2.89,1.67l-0.96,1.67L136.85,34.53L136.85,34.53z M139.83,32.92l2.79,1.61h-3.72L139.83,32.92z M139.88,32.82l0.93-1.61l1.86,3.22
		L139.88,32.82z M138.84,20.6l-1.89-3.28l5.68,3.28H138.84z M132.8,17.12l-1.89-3.28l5.68,3.28H132.8z M128.72,17.12h-3.79
		l5.68-3.28L128.72,17.12z M122.69,20.6h-3.79l5.68-3.28L122.69,20.6z M122.69,34.64l1.89,3.28l-5.68-3.28H122.69z M128.72,38.12
		l1.89,3.28l-5.68-3.28H128.72z M132.81,38.12h3.79l-5.68,3.28L132.81,38.12z M138.84,34.64h3.79l-5.68,3.28L138.84,34.64z"/>
	<g>
		<path class="st0" d="M119.27,20.71c0,0.28-0.23,0.51-0.51,0.51s-0.51-0.23-0.51-0.51s0.23-0.51,0.51-0.51
			C119.04,20.19,119.27,20.43,119.27,20.71z"/>
	</g>
	<g>
		<path class="st0" d="M125.19,38.01c0,0.28-0.23,0.51-0.51,0.51s-0.51-0.23-0.51-0.51s0.23-0.51,0.51-0.51
			S125.19,37.73,125.19,38.01z"/>
	</g>
	<g>
		<path class="st0" d="M119,27.62c0,0.28-0.23,0.51-0.51,0.51s-0.51-0.23-0.51-0.51s0.23-0.51,0.51-0.51S119,27.34,119,27.62z"/>
	</g>
	<g>
		<path class="st0" d="M125.38,24.19c0,0.28-0.23,0.51-0.51,0.51s-0.51-0.23-0.51-0.51s0.23-0.51,0.51-0.51
			C125.15,23.68,125.38,23.91,125.38,24.19z"/>
	</g>
	<g>
		<path class="st0" d="M125.35,31.1c0,0.28-0.23,0.51-0.51,0.51s-0.51-0.23-0.51-0.51s0.23-0.51,0.51-0.51
			C125.12,30.59,125.35,30.82,125.35,31.1z"/>
	</g>
	<g>
		<path class="st0" d="M128.26,18.81c0,0.28-0.23,0.51-0.51,0.51c-0.28,0-0.51-0.23-0.51-0.51s0.23-0.51,0.51-0.51
			C128.03,18.3,128.26,18.52,128.26,18.81z"/>
	</g>
	<g>
		<path class="st0" d="M128.26,36.39c0,0.28-0.23,0.51-0.51,0.51c-0.28,0-0.51-0.23-0.51-0.51s0.23-0.51,0.51-0.51
			C128.03,35.88,128.26,36.11,128.26,36.39z"/>
	</g>
	<g>
		<path class="st0" d="M125.3,17.23c0,0.28-0.23,0.51-0.51,0.51s-0.51-0.23-0.51-0.51s0.23-0.51,0.51-0.51
			C125.07,16.71,125.3,16.94,125.3,17.23z"/>
	</g>
	<path class="st0" d="M130.52,9.82v17.22v2.43v20.18c0,0,17.26-6.16,17.26-15.36v-4.9v-1.53V13.21L130.52,9.82z"/>
	<path class="st0" d="M114.33,32.29c0,3.89,7.3,6.5,7.3,6.5V25.22l-7.3,0.35V32.29z"/>
</g>
</svg>
