<?xml version="1.0" encoding="UTF-8"?>
<svg id="Ebene_2" data-name="Ebene 2" xmlns="http://www.w3.org/2000/svg" viewBox="0 0 386.42 339.86">
  <defs>
    <style>
      .cls-1 {
        fill: #ddd;
      }

      .cls-2 {
        fill: #fff;
      }

      .cls-3 {
        fill: none;
      }

      .cls-3, .cls-4, .cls-5 {
        stroke: #a65117;
        stroke-linejoin: round;
        stroke-width: .5px;
      }

      .cls-4 {
        fill: #d36114;
      }

      .cls-5 {
        fill: #f08322;
      }
    </style>
  </defs>
  <g id="Schlagschatten">
    <polygon class="cls-1" points="354.97 288.68 372.01 271.43 339.28 229.17 193.13 226 46.99 229.17 14.26 271.43 25.07 291 14.26 339.86 115.46 339.86 193.13 312.94 270.8 339.86 376.76 339.86 354.97 288.68"/>
  </g>
  <g id="Arme_Links" data-name="Arme Links">
    <g id="Arm_hinten" data-name="Arm hinten">
      <polygon class="cls-4" points="146.53 232.08 140.99 222.37 87.5 226.1 73.83 244.1 146.53 232.08"/>
      <polygon class="cls-4" points="51.98 226.07 73.83 244.1 87.5 226.1 51.98 226.07"/>
      <polygon class="cls-4" points="38.82 211.2 51.98 226.07 87.5 226.1 28.47 194.28 38.82 211.2"/>
      <polygon class="cls-5" points="24.37 183.87 38.83 182.55 18.11 206.01 .25 203.81 16.98 185.37 24.37 183.87"/>
      <polygon class="cls-4" points="28.47 194.28 .25 203.81 38.82 211.2 28.47 194.28"/>
      <polygon class="cls-5" points="87.5 226.1 101.18 208.1 130.02 203.64 140.99 222.37 87.5 226.1"/>
      <polygon class="cls-5" points="87.5 226.1 101.18 208.1 66.91 194.69 87.5 226.1"/>
      <polygon class="cls-5" points="66.91 194.69 38.83 182.55 28.47 194.28 87.5 226.1 66.91 194.69"/>
    </g>
    <g id="Arm_Mitte" data-name="Arm Mitte">
      <polygon class="cls-4" points="115.18 282.14 101.55 263.95 151.3 240.42 115.18 282.14"/>
      <polygon class="cls-4" points="75.92 285.31 115.18 282.14 101.55 263.95 75.92 285.31"/>
      <polygon class="cls-4" points="36.38 254.73 40.56 275.51 75.92 285.31 101.55 263.95 36.38 254.73"/>
      <polygon class="cls-4" points="9.58 257.73 40.56 275.51 36.38 254.73 9.58 257.73"/>
      <polygon class="cls-4" points="4.1 241.32 9.58 257.73 36.38 254.73 4.1 241.32"/>
      <polygon class="cls-5" points="35.12 239.67 87.42 236.66 101.55 263.95 36.38 254.73 35.12 239.67"/>
      <polygon class="cls-5" points="35.12 239.67 19.15 226.8 36.38 254.73 36.38 254.73 35.12 239.67"/>
      <polygon class="cls-5" points="7.16 212.26 19.15 226.8 4.1 241.32 7.16 212.26"/>
      <polygon class="cls-5" points="130.02 203.64 87.42 236.66 101.55 263.95 151.3 240.42 130.02 203.64"/>
      <polygon class="cls-5" points="36.38 254.73 19.15 226.8 4.1 241.32 36.38 254.73"/>
    </g>
    <g id="Arm_vorne_links" data-name="Arm vorne links">
      <polygon class="cls-4" points="171.1 275.24 122.04 301.83 122.04 316.88 165.96 301.06 171.1 275.24"/>
      <polygon class="cls-5" points="151.28 240.14 171.1 275.24 122.04 301.83 98.99 281 151.28 240.14"/>
      <polygon class="cls-5" points="70.25 286.08 31.38 305.42 72.86 308.99 70.25 286.08"/>
      <polygon class="cls-5" points="31.38 305.42 21.59 332.71 72.86 308.99 31.38 305.42"/>
      <polygon class="cls-5" points="98.99 281 70.25 286.08 72.86 308.99 122.04 301.83 98.99 281"/>
      <polygon class="cls-4" points="72.86 308.99 57.69 316.01 122.04 316.88 122.04 301.83 72.86 308.99"/>
      <polygon class="cls-4" points="192.99 281 165.96 301.06 171.1 275.24 193.13 253.21 192.99 281"/>
    </g>
  </g>
  <g id="Arme_rechts" data-name="Arme rechts">
    <g id="Arm_hinten-2" data-name="Arm hinten">
      <polygon class="cls-4" points="239.84 232.15 245.4 222.44 298.88 226.24 312.53 244.26 239.84 232.15"/>
      <polygon class="cls-4" points="334.4 226.27 312.53 244.26 298.88 226.24 334.4 226.27"/>
      <polygon class="cls-4" points="347.59 211.42 334.4 226.27 298.88 226.24 357.96 194.51 347.59 211.42"/>
      <polygon class="cls-5" points="362.07 184.11 347.62 182.76 368.31 206.26 386.17 204.08 369.47 185.62 362.07 184.11"/>
      <polygon class="cls-4" points="357.96 194.51 386.17 204.08 347.59 211.42 357.96 194.51"/>
      <polygon class="cls-5" points="298.88 226.24 285.24 208.22 256.4 203.72 245.4 222.44 298.88 226.24"/>
      <polygon class="cls-5" points="298.88 226.24 285.24 208.22 319.52 194.87 298.88 226.24"/>
      <polygon class="cls-5" points="319.52 194.87 347.62 182.76 357.96 194.51 298.88 226.24 319.52 194.87"/>
    </g>
    <g id="Arm_Mitte-2" data-name="Arm Mitte">
      <polygon class="cls-4" points="271.13 282.25 284.78 264.08 235.07 240.48 271.13 282.25"/>
      <polygon class="cls-4" points="310.39 285.48 271.13 282.25 284.78 264.08 310.39 285.48"/>
      <polygon class="cls-4" points="349.97 254.95 345.75 275.72 310.39 285.48 284.78 264.08 349.97 254.95"/>
      <polygon class="cls-4" points="376.76 257.98 345.75 275.72 349.97 254.95 376.76 257.98"/>
      <polygon class="cls-4" points="382.26 241.58 376.76 257.98 349.97 254.95 382.26 241.58"/>
      <polygon class="cls-5" points="351.25 239.89 298.95 236.81 284.78 264.08 349.97 254.95 351.25 239.89"/>
      <polygon class="cls-5" points="351.25 239.89 367.24 227.04 349.97 254.95 349.97 254.95 351.25 239.89"/>
      <polygon class="cls-5" points="379.25 212.52 367.24 227.04 382.26 241.58 379.25 212.52"/>
      <polygon class="cls-5" points="256.4 203.72 298.95 236.81 284.78 264.08 235.07 240.48 256.4 203.72"/>
      <polygon class="cls-5" points="349.97 254.95 367.24 227.04 382.26 241.58 349.97 254.95"/>
    </g>
    <g id="Arm_vorne_rechts" data-name="Arm vorne rechts">
      <polygon class="cls-4" points="215.25 275.59 264.31 302.17 264.31 317.22 220.39 301.41 215.25 275.59"/>
      <polygon class="cls-5" points="235.07 240.48 215.25 275.59 264.31 302.17 287.36 281.35 235.07 240.48"/>
      <polygon class="cls-5" points="316.09 286.43 354.97 305.76 313.48 309.33 316.09 286.43"/>
      <polygon class="cls-5" points="354.97 305.76 364.76 333.06 313.48 309.33 354.97 305.76"/>
      <polygon class="cls-5" points="287.36 281.35 316.09 286.43 313.48 309.33 264.31 302.17 287.36 281.35"/>
      <polygon class="cls-4" points="313.48 309.33 328.65 316.35 264.31 317.22 264.31 302.17 313.48 309.33"/>
      <polygon class="cls-4" points="193.35 281.35 220.39 301.41 215.25 275.59 193.22 253.56 193.35 281.35"/>
    </g>
  </g>
  <g id="Kopf">
    <polygon class="cls-5" points="122.63 40.65 193.35 .25 193.34 16.34 122.63 40.65"/>
    <polygon class="cls-5" points="92.39 89.44 122.63 40.65 136.09 75.18 92.39 89.44"/>
    <polygon class="cls-5" points="193.35 54.84 193.34 16.34 122.63 40.65 136.09 75.18 193.35 54.84"/>
    <polygon class="cls-5" points="156.54 137.21 193.22 124.29 193.35 54.84 136.09 75.18 138.2 137.2 156.54 137.21"/>
    <polygon class="cls-5" points="99.36 156.59 92.39 89.44 136.09 75.18 138.2 137.2 99.36 156.59"/>
    <polygon class="cls-5" points="130.02 203.64 99.36 156.59 137.54 134.1 130.02 203.64"/>
    <polygon class="cls-5" points="264.02 40.75 193.35 .25 193.34 16.34 264.02 40.75"/>
    <polygon class="cls-5" points="294.18 89.58 264.02 40.75 250.51 75.26 294.18 89.58"/>
    <polygon class="cls-5" points="193.35 54.84 193.34 16.34 264.02 40.75 250.51 75.26 193.35 54.84"/>
    <polygon class="cls-5" points="229.97 137.26 193.31 124.29 193.35 54.84 250.51 75.26 248.31 137.28 229.97 137.26"/>
    <polygon class="cls-5" points="287.13 156.72 294.18 89.58 250.51 75.26 248.31 137.28 287.13 156.72"/>
    <polygon class="cls-5" points="256.4 203.72 287.13 156.72 248.97 134.18 256.4 203.72"/>
    <g>
      <polygon class="cls-5" points="249.19 134.04 230.64 134.17 193.31 124.29 193.27 168.52 193.24 224.61 193.22 253.56 215.25 275.59 235.07 240.48 256.4 203.72 249.19 134.04"/>
      <polygon class="cls-5" points="137.33 133.96 130.02 203.64 151.3 240.42 171.1 275.24 193.13 253.56 193.15 224.61 193.19 168.52 193.22 124.29 155.88 134.11 137.33 133.96"/>
    </g>
    <line class="cls-3" x1="130.02" y1="203.64" x2="193.16" y2="217.87"/>
    <line class="cls-3" x1="193.16" y1="217.87" x2="256.4" y2="203.72"/>
    <line class="cls-3" x1="151.3" y1="240.42" x2="193.16" y2="217.87"/>
    <line class="cls-3" x1="193.16" y1="217.87" x2="235.07" y2="240.48"/>
  </g>
  <g id="Mund">
    <path class="cls-4" d="m165.77,166.19s27.48,31.59,55.01.04l-55.01-.04Z"/>
  </g>
  <g id="Auge_Links" data-name="Auge Links">
    <path class="cls-2" d="m124.72,141.65s-11.28-13.17-11.31-23.17c-.03-12.49,6.51-22.87,17.73-25.14,17.25-3.49,29.16,13.9,27.37,30.32-.24,2.24-2.63,10.45-2.63,10.45l-4.52.14c-4.89.15-13.81-.16-13.81-.16l-12.82,7.55Z"/>
    <path d="m124.72,141.65c-2.06-1.64-8.95-14.55-4.84-23.34,2.51-5.37,7.74-9.92,14.45-11.15.63-.12,11.35-1.89,18.45,6.32,4.86,5.62,6.06,13.65,3.1,20.63,0,0-12,.49-18.34-.01l-12.82,7.55Z"/>
    <circle class="cls-2" cx="144.33" cy="119.51" r="6.47"/>
  </g>
  <g id="Auge_rechts" data-name="Auge rechts">
    <path class="cls-2" d="m265.12,142.81s6.8-10.97,7.52-23.92c.4-7.19-.16-18.1-11.84-23.64-15.91-7.53-30.25,2.04-33.54,18.87-1.46,7.46,3.38,20.05,3.38,20.05l3.82-1.02c4.87-.47,13.68-1.9,13.68-1.9l16.97,11.56Z"/>
    <path d="m230.64,134.17c-1.98-3.91-.71-16.3,3.89-21.5,2.09-2.37,8.15-6.14,14.89-6.04,9.04.15,16.84,7.32,18.89,14.02,2.78,9.05-2.34,20.49-3.44,22.92,0,0-15.68-9.53-15.89-9.39h-18.34Z"/>
    <circle class="cls-2" cx="257.29" cy="120.72" r="6.47" transform="translate(-14.72 203.08) rotate(-41.98)"/>
  </g>
</svg>